<mxfile host="app.diagrams.net" modified="2023-08-24T06:35:12.313Z" agent="Mozilla/5.0 (Macintosh; Intel Mac OS X 10_15_7) AppleWebKit/605.1.15 (KHTML, like Gecko) Version/16.6 Safari/605.1.15" etag="SvAnrstituS3GvsR6E4i" version="21.6.9" type="github">
  <diagram name="第 1 页" id="zZwkXRx77wNFPlPYTP0u">
    <mxGraphModel dx="986" dy="778" grid="1" gridSize="10" guides="1" tooltips="1" connect="1" arrows="1" fold="1" page="1" pageScale="1" pageWidth="1100" pageHeight="850" math="0" shadow="0">
      <root>
        <mxCell id="0" />
        <mxCell id="1" parent="0" />
        <mxCell id="UllSF82AxkFsdEXO778--1" value="" style="whiteSpace=wrap;html=1;rounded=1;strokeWidth=1.5;" parent="1" vertex="1">
          <mxGeometry x="430" y="210" width="120" height="240" as="geometry" />
        </mxCell>
        <mxCell id="UllSF82AxkFsdEXO778--2" value="input 0" style="whiteSpace=wrap;html=1;rounded=1;" parent="1" vertex="1">
          <mxGeometry x="440" y="230" width="100" height="40" as="geometry" />
        </mxCell>
        <mxCell id="UllSF82AxkFsdEXO778--3" value="input 1" style="whiteSpace=wrap;html=1;rounded=1;" parent="1" vertex="1">
          <mxGeometry x="440" y="280" width="100" height="40" as="geometry" />
        </mxCell>
        <mxCell id="UllSF82AxkFsdEXO778--45" value="" style="edgeStyle=none;rounded=1;orthogonalLoop=1;jettySize=auto;html=1;strokeWidth=1.5;" parent="1" source="UllSF82AxkFsdEXO778--4" target="UllSF82AxkFsdEXO778--44" edge="1">
          <mxGeometry relative="1" as="geometry" />
        </mxCell>
        <mxCell id="UllSF82AxkFsdEXO778--4" value="output 0" style="whiteSpace=wrap;html=1;rounded=1;" parent="1" vertex="1">
          <mxGeometry x="440" y="330" width="100" height="40" as="geometry" />
        </mxCell>
        <mxCell id="UllSF82AxkFsdEXO778--6" value="" style="whiteSpace=wrap;html=1;rounded=1;dashed=1;strokeWidth=1.5;" parent="1" vertex="1">
          <mxGeometry x="260" y="210" width="120" height="240" as="geometry" />
        </mxCell>
        <mxCell id="UllSF82AxkFsdEXO778--50" value="" style="edgeStyle=none;rounded=1;orthogonalLoop=1;jettySize=auto;html=1;strokeWidth=1.5;" parent="1" source="UllSF82AxkFsdEXO778--5" target="UllSF82AxkFsdEXO778--49" edge="1">
          <mxGeometry relative="1" as="geometry" />
        </mxCell>
        <mxCell id="UllSF82AxkFsdEXO778--5" value="output 1" style="whiteSpace=wrap;html=1;rounded=1;" parent="1" vertex="1">
          <mxGeometry x="440" y="380" width="100" height="40" as="geometry" />
        </mxCell>
        <mxCell id="UllSF82AxkFsdEXO778--7" value="input 0" style="whiteSpace=wrap;html=1;rounded=1;" parent="1" vertex="1">
          <mxGeometry x="270" y="230" width="100" height="40" as="geometry" />
        </mxCell>
        <mxCell id="UllSF82AxkFsdEXO778--8" value="input 1" style="whiteSpace=wrap;html=1;rounded=1;" parent="1" vertex="1">
          <mxGeometry x="270" y="280" width="100" height="40" as="geometry" />
        </mxCell>
        <mxCell id="UllSF82AxkFsdEXO778--10" value="output 1" style="whiteSpace=wrap;html=1;rounded=1;" parent="1" vertex="1">
          <mxGeometry x="270" y="380" width="100" height="40" as="geometry" />
        </mxCell>
        <mxCell id="UllSF82AxkFsdEXO778--9" value="output 0" style="whiteSpace=wrap;html=1;rounded=1;" parent="1" vertex="1">
          <mxGeometry x="270" y="330" width="100" height="40" as="geometry" />
        </mxCell>
        <mxCell id="UllSF82AxkFsdEXO778--17" value="" style="whiteSpace=wrap;html=1;rounded=1;dashed=1;strokeWidth=1.5;" parent="1" vertex="1">
          <mxGeometry x="90" y="210" width="120" height="240" as="geometry" />
        </mxCell>
        <mxCell id="UllSF82AxkFsdEXO778--18" value="input 0" style="whiteSpace=wrap;html=1;rounded=1;" parent="1" vertex="1">
          <mxGeometry x="100" y="230" width="100" height="40" as="geometry" />
        </mxCell>
        <mxCell id="UllSF82AxkFsdEXO778--19" value="input 1" style="whiteSpace=wrap;html=1;rounded=1;" parent="1" vertex="1">
          <mxGeometry x="100" y="280" width="100" height="40" as="geometry" />
        </mxCell>
        <mxCell id="UllSF82AxkFsdEXO778--20" value="output 1" style="whiteSpace=wrap;html=1;rounded=1;" parent="1" vertex="1">
          <mxGeometry x="100" y="380" width="100" height="40" as="geometry" />
        </mxCell>
        <mxCell id="UllSF82AxkFsdEXO778--21" value="output 0" style="whiteSpace=wrap;html=1;rounded=1;" parent="1" vertex="1">
          <mxGeometry x="100" y="330" width="100" height="40" as="geometry" />
        </mxCell>
        <mxCell id="UllSF82AxkFsdEXO778--22" style="edgeStyle=orthogonalEdgeStyle;rounded=1;orthogonalLoop=1;jettySize=auto;html=1;exitX=0;exitY=0.5;exitDx=0;exitDy=0;entryX=1;entryY=0.5;entryDx=0;entryDy=0;dashed=1;strokeWidth=1.5;" parent="1" source="UllSF82AxkFsdEXO778--2" target="UllSF82AxkFsdEXO778--20" edge="1">
          <mxGeometry relative="1" as="geometry">
            <Array as="points">
              <mxPoint x="420" y="250" />
              <mxPoint x="420" y="170" />
              <mxPoint x="240" y="170" />
              <mxPoint x="240" y="400" />
            </Array>
          </mxGeometry>
        </mxCell>
        <mxCell id="UllSF82AxkFsdEXO778--26" value="4BTC&lt;br&gt;" style="edgeLabel;html=1;align=center;verticalAlign=middle;resizable=0;points=[];" parent="UllSF82AxkFsdEXO778--22" vertex="1" connectable="0">
          <mxGeometry x="-0.2678" relative="1" as="geometry">
            <mxPoint as="offset" />
          </mxGeometry>
        </mxCell>
        <mxCell id="UllSF82AxkFsdEXO778--24" style="edgeStyle=orthogonalEdgeStyle;rounded=1;orthogonalLoop=1;jettySize=auto;html=1;exitX=0;exitY=0.5;exitDx=0;exitDy=0;entryX=1;entryY=0.5;entryDx=0;entryDy=0;dashed=1;strokeWidth=1.5;" parent="1" source="UllSF82AxkFsdEXO778--3" target="UllSF82AxkFsdEXO778--9" edge="1">
          <mxGeometry relative="1" as="geometry" />
        </mxCell>
        <mxCell id="UllSF82AxkFsdEXO778--25" value="2BTC&lt;br&gt;" style="edgeLabel;html=1;align=center;verticalAlign=middle;resizable=0;points=[];" parent="UllSF82AxkFsdEXO778--24" vertex="1" connectable="0">
          <mxGeometry x="-0.0375" y="1" relative="1" as="geometry">
            <mxPoint as="offset" />
          </mxGeometry>
        </mxCell>
        <mxCell id="UllSF82AxkFsdEXO778--44" value="send to Alice&#39;s pubkey 3 BTC" style="whiteSpace=wrap;html=1;rounded=1;strokeWidth=1.5;" parent="1" vertex="1">
          <mxGeometry x="590" y="335" width="220" height="30" as="geometry" />
        </mxCell>
        <mxCell id="UllSF82AxkFsdEXO778--49" value="send to Bob&#39;s pubkey &amp;nbsp;2.95 BTC" style="whiteSpace=wrap;html=1;rounded=1;strokeWidth=1.5;" parent="1" vertex="1">
          <mxGeometry x="590" y="385" width="240" height="30" as="geometry" />
        </mxCell>
        <mxCell id="UllSF82AxkFsdEXO778--51" value="id2" style="text;html=1;align=center;verticalAlign=middle;resizable=0;points=[];autosize=1;strokeColor=none;fillColor=none;" parent="1" vertex="1">
          <mxGeometry x="470" y="450" width="40" height="30" as="geometry" />
        </mxCell>
        <mxCell id="UllSF82AxkFsdEXO778--52" value="id1" style="text;html=1;align=center;verticalAlign=middle;resizable=0;points=[];autosize=1;strokeColor=none;fillColor=none;" parent="1" vertex="1">
          <mxGeometry x="300" y="450" width="40" height="30" as="geometry" />
        </mxCell>
        <mxCell id="UllSF82AxkFsdEXO778--53" value="id0" style="text;html=1;align=center;verticalAlign=middle;resizable=0;points=[];autosize=1;strokeColor=none;fillColor=none;" parent="1" vertex="1">
          <mxGeometry x="130" y="450" width="40" height="30" as="geometry" />
        </mxCell>
      </root>
    </mxGraphModel>
  </diagram>
</mxfile>
